HIERARCHY
ROOT root
{
	OFFSET	0	13.1	24.9
	CHANNELS 6  Xposition Yposition Zposition Xrotation Yrotation Zrotation
	JOINT spine_1
	{
		OFFSET	0	9.99999	0
		CHANNELS 3  Xrotation Yrotation Zrotation
		JOINT spine_2
		{
			OFFSET	0	112	-10
			CHANNELS 3  Xrotation Yrotation Zrotation
			JOINT spine_3
			{
				OFFSET	0	206.5	19.3
				CHANNELS 3  Xrotation Yrotation Zrotation
				JOINT spine_4
				{
					OFFSET	0	110.4	14.6
					CHANNELS 3  Xrotation Yrotation Zrotation
					JOINT neck_1
					{
						OFFSET	0	71.8	-50.3
						CHANNELS 3  Xrotation Yrotation Zrotation
						JOINT neck_2
						{
							OFFSET	0	86.2	-25.8
							CHANNELS 3  Xrotation Yrotation Zrotation
							JOINT head_ee
							{
								OFFSET	0	179.8	-8.7
								CHANNELS 3  Xrotation Yrotation Zrotation
								End Site
								{
									OFFSET	1	0	0
								}
							}
						}
					}
					JOINT left_clavicle
					{
						OFFSET	-43.2	22.4	-70.8
						CHANNELS 3  Xrotation Yrotation Zrotation
						JOINT left_shoulder
						{
							OFFSET	-93.9	-5.79999	48.7
							CHANNELS 3  Xrotation Yrotation Zrotation
							JOINT left_elbow
							{
								OFFSET	-291.4	-30.8	15.2
								CHANNELS 3  Xrotation Yrotation Zrotation
								JOINT left_lowarm_twist
								{
									OFFSET	-110.7	-3.89999	13.6
									CHANNELS 3  Xrotation Yrotation Zrotation
									JOINT left_hand
									{
										OFFSET	-110.7	-3.89999	13.6
										CHANNELS 3  Xrotation Yrotation Zrotation
										JOINT left_ee
										{
											OFFSET	-80.8	-5.10001	12.1
											CHANNELS 3  Xrotation Yrotation Zrotation
											End Site
											{
												OFFSET	1	0	0
											}
										}
									}
								}
							}
						}
					}
					JOINT right_clavicle
					{
						OFFSET	43.2	22.4	-70.8
						CHANNELS 3  Xrotation Yrotation Zrotation
						JOINT right_shoulder
						{
							OFFSET	93.9	-5.79999	48.7
							CHANNELS 3  Xrotation Yrotation Zrotation
							JOINT right_elbow
							{
								OFFSET	291.4	-30.8	15.2
								CHANNELS 3  Xrotation Yrotation Zrotation
								JOINT right_lowarm_twist
								{
									OFFSET	110.7	-3.89999	13.6
									CHANNELS 3  Xrotation Yrotation Zrotation
									JOINT right_hand
									{
										OFFSET	110.7	-3.89999	13.6
										CHANNELS 3  Xrotation Yrotation Zrotation
										JOINT right_ee
										{
											OFFSET	80.8	-5.10001	12.1
											CHANNELS 3  Xrotation Yrotation Zrotation
											End Site
											{
												OFFSET	1	0	0
											}
										}
									}
								}
							}
						}
					}
				}
			}
		}
	}
	JOINT left_hip
	{
		OFFSET	-82.8	-127.5	0.300001
		CHANNELS 3  Xrotation Yrotation Zrotation
		JOINT left_knee
		{
			OFFSET	-28.2	-396.7	2.2
			CHANNELS 3  Xrotation Yrotation Zrotation
			JOINT left_ankle
			{
				OFFSET	-11.7	-411.3	35.4
				CHANNELS 3  Xrotation Yrotation Zrotation
				JOINT left_toes
				{
					OFFSET	0	-60	-88.6
					CHANNELS 3  Xrotation Yrotation Zrotation
					JOINT left_foot_ee
					{
						OFFSET	-22.5	-16.5	-42.2
						CHANNELS 3  Xrotation Yrotation Zrotation
						End Site
						{
							OFFSET	1	0	0
						}
					}
				}
			}
		}
	}
	JOINT right_hip
	{
		OFFSET	82.8	-127.5	0.300001
		CHANNELS 3  Xrotation Yrotation Zrotation
		JOINT right_knee
		{
			OFFSET	28.2	-396.7	2.2
			CHANNELS 3  Xrotation Yrotation Zrotation
			JOINT right_ankle
			{
				OFFSET	11.7	-411.3	35.4
				CHANNELS 3  Xrotation Yrotation Zrotation
				JOINT right_toes
				{
					OFFSET	0	-60	-88.6
					CHANNELS 3  Xrotation Yrotation Zrotation
					JOINT right_foot_ee
					{
						OFFSET	22.5	-16.5	-42.2
						CHANNELS 3  Xrotation Yrotation Zrotation
						End Site
						{
							OFFSET	1	0	0
						}
					}
				}
			}
		}
	}
}
MOTION
Frames: 9
Frame Time: 0.02
937.106 736.555 -1600.74 -8.63857 40.6641 9.54533 4.06852 -0.0770117 -0.512255 4.06867 -0.04426 -0.516117 4.06898 0.0285756 -0.517223 4.06861 -0.0534676 -0.515245 -5.55348 3.47281 3.05513 -5.5286 4.13065 3.72282 -0.0 0.0 -0.0 4.51678 15.6299 9.03251 -20.5505 -36.8518 26.2432 1.04804 -27.4361 0.25584 2.13894 0.0704371 -0.264096 -4.44156 -15.1266 -38.9879 -0.0 0.0 -0.0 5.98376 8.32307 -11.327 -33.4758 20.0626 -57.4886 0.704793 19.2458 -0.119498 9.20656 -0.232259 1.15185 3.59575 -9.71598 -28.3746 0.0 0.0 0.0 15.9921 24.8347 -7.16077 -9.55942 0.274009 1.43978 29.8647 -3.69957 -3.9312 6.65892 -0.0 -0.0 -0.0 0.0 -0.0 26.1681 21.154 -0.432053 -15.3742 -0.322045 -2.3303 19.0213 8.26222 2.70635 7.78804 -0.0 -0.0 0.0 0.0 0.0 
930.108 735.566 -1606.65 -8.0348 41.7166 8.60039 3.81666 -0.0781524 -0.226213 3.81668 -0.0635995 -0.230727 3.81693 -0.0295615 -0.2375 3.81686 -0.066699 -0.229851 -5.40359 2.14474 0.759613 -5.40081 3.38461 1.15425 -0.0 0.0 -0.0 4.54423 16.925 9.07172 -20.3022 -36.7996 26.1518 1.257 -31.9085 0.359367 2.14471 0.0706135 -0.264813 -4.5308 -17.2772 -40.6703 -0.0 0.0 -0.0 5.55127 7.63205 -10.4623 -33.7318 20.0655 -58.6717 0.780242 21.1319 -0.145541 10.3234 -0.24776 1.29366 3.52392 -8.74165 -27.5225 0.0 0.0 0.0 15.1418 25.7314 -7.07824 -8.14473 0.248673 1.22419 30.1971 -3.12161 -3.96015 6.52427 -0.0 -0.0 -0.0 0.0 -0.0 24.6195 20.6985 -0.367006 -11.8814 -0.30403 -1.79478 14.0308 6.83958 2.02897 7.1665 -0.0 -0.0 0.0 0.0 0.0 
926.38 735.645 -1609.51 -9.87519 41.1667 9.99912 4.10377 -0.11814 -0.298692 4.10381 -0.0988943 -0.305604 4.10431 -0.0552444 -0.31642 4.10419 -0.104524 -0.303725 -5.07309 2.48328 0.515697 -5.06945 4.17966 0.957138 -0.0 0.0 -0.0 4.53561 18.0372 9.05034 -19.7586 -36.7895 26.2765 1.24155 -31.5914 0.351235 1.06692 0.0363681 -0.131409 -4.70193 -20.7595 -43.5321 -0.0 0.0 -0.0 5.03418 6.38223 -9.46094 -34.3792 20.1444 -58.2729 0.92318 24.575 -0.201079 10.5164 -0.250159 1.3182 3.02943 -8.87993 -23.9849 0.0 0.0 0.0 16.4096 25.0382 -6.6926 -6.67876 0.216809 1.00148 31.2452 -2.79543 -4.06726 6.55389 -0.0 -0.0 -0.0 0.0 -0.0 25.0815 20.876 -0.63945 -9.24364 -0.268815 -1.39161 8.20577 4.46934 1.20174 6.96327 -0.0 -0.0 0.0 0.0 0.0 
914.362 738.135 -1609.96 -9.39073 41.0679 9.22659 3.8463 -0.0207163 0.0195549 3.8463 -0.0219186 0.018197 3.84629 -0.0243124 0.0148481 3.84629 -0.0216622 0.0185015 -7.17689 0.19579 -0.188683 -7.17677 0.49977 -0.148229 -0.0 0.0 -0.0 5.3283 20.436 10.2011 -19.4064 -36.5334 26.519 1.36348 -34.0344 0.417324 -3.35302 -0.130141 0.408287 -5.10946 -24.7585 -48.5717 -0.0 0.0 -0.0 4.6742 5.3632 -8.78069 -33.9546 19.9234 -58.1127 1.06363 27.7835 -0.263066 10.9961 -0.255762 1.37923 2.58046 -7.8451 -20.4648 0.0 0.0 0.0 6.03896 25.627 -0.325327 1.60465 -0.0693968 -0.236448 35.7379 -2.95223 -4.51806 9.30409 -0.0 -0.0 -0.0 0.0 -0.0 25.7427 20.8548 -0.506865 -7.42034 -0.23364 -1.11404 -3.36769 2.52277 -0.505897 6.90036 -0.0 -0.0 0.0 0.0 0.0 
898.937 739.976 -1616.22 -7.13432 40.7731 6.90914 3.63546 0.26833 0.326803 3.63548 0.246991 0.343215 3.63696 0.193581 0.375935 3.63685 0.250523 0.340645 -6.61177 -1.53777 -0.50795 -6.61107 -2.48085 -0.811719 -0.0 0.0 -0.0 5.78675 23.6972 10.7055 -19.1872 -36.4553 27.26 1.56151 -37.7202 0.53344 -6.91696 -0.294444 0.833246 -5.43169 -25.7048 -51.9154 -0.0 0.0 -0.0 4.31134 4.20245 -8.11109 -33.8542 19.8404 -58.7691 1.02262 26.8652 -0.244244 11.5343 -0.26144 1.44773 2.07505 -6.12196 -16.3569 0.0 0.0 0.0 -0.54073 25.3307 2.85365 6.92936 -0.3467 -1.00578 34.9267 -1.33989 -4.4233 10.4029 -0.0 -0.0 -0.0 0.0 -0.0 25.5036 21.6717 -0.0560874 -8.34801 -0.252641 -1.25513 -11.7077 1.66312 -1.77825 6.0541 -0.0 -0.0 0.0 0.0 0.0 
892.801 740.246 -1619.32 -6.55755 40.7143 6.67401 3.22268 0.453964 0.374503 3.22266 0.429213 0.402631 3.2257 0.36171 0.464221 3.22566 0.430485 0.401271 -8.34274 -2.62058 -0.85703 -8.34376 -4.29669 -1.4303 -0.0 0.0 -0.0 6.31753 24.013 11.4292 -18.2011 -36.1904 27.9165 1.56331 -37.7522 0.534541 -9.93635 -0.454142 1.18482 -5.51102 -25.726 -52.7027 -0.0 0.0 -0.0 4.23102 4.0533 -7.95821 -33.4224 19.546 -58.7678 1.08984 28.3627 -0.275402 11.9126 -0.265046 1.49592 1.75536 -7.59355 -14.7285 0.0 0.0 0.0 -0.228252 25.6522 2.21329 4.07043 -0.188894 -0.595838 35.1887 -0.507092 -4.44133 12.4712 -0.0 -0.0 -0.0 0.0 -0.0 25.0754 22.1731 0.530077 -7.35194 -0.232149 -1.10365 -16.9455 4.6991 -2.61522 5.76161 -0.0 -0.0 0.0 0.0 0.0 
889.1 740.479 -1624.6 -7.4764 40.3437 7.2131 3.26819 0.700675 0.404028 3.26803 0.673546 0.447796 3.27339 0.596574 0.546157 3.27361 0.675341 0.445084 -8.15111 -3.67378 -1.28155 -8.15188 -5.95815 -2.07563 -0.0 0.0 -0.0 6.73176 24.5851 11.96 -18.7111 -35.5356 28.4507 1.58762 -38.1808 0.549494 -11.4915 -0.543584 1.36253 -5.84504 -25.0631 -55.9537 -0.0 0.0 -0.0 4.12974 3.51468 -7.78569 -33.618 19.4597 -59.2245 1.13639 29.3756 -0.297876 12.1714 -0.26733 1.5289 1.2932 -6.62467 -11.2721 0.0 0.0 0.0 -0.0717033 25.4963 2.06509 4.99216 -0.237528 -0.728839 38.8372 -0.00553672 -4.77457 15.0171 -0.0 -0.0 -0.0 0.0 -0.0 25.5965 22.2757 0.265973 -5.48512 -0.18666 -0.820789 -21.1759 6.18272 -3.29486 5.55131 -0.0 -0.0 0.0 0.0 0.0 
881.822 740.609 -1631.39 -7.34976 40.4525 6.53205 3.22852 0.8587 0.329686 3.22819 0.83598 0.383662 3.23396 0.766601 0.508319 3.23457 0.837258 0.380865 -6.21264 -2.22363 -3.54543 -6.17871 -1.50989 -3.99339 -0.0 0.0 -0.0 7.06945 25.0836 12.3799 -19.3118 -34.6653 30.2944 1.60031 -38.4027 0.557362 -13.7217 -0.680223 1.61305 -5.31048 -24.8801 -50.5044 -0.0 0.0 -0.0 4.4662 4.98784 -8.37989 -32.4605 18.8941 -60.7249 0.920391 24.5095 -0.199921 13.9532 -0.279005 1.75618 1.00609 -5.14908 -8.79223 0.0 0.0 0.0 -0.0431208 25.4922 2.35409 1.85479 -0.080811 -0.273132 31.5881 4.73232 -4.05638 12.6819 -0.0 -0.0 -0.0 0.0 -0.0 24.9494 22.7002 0.757432 -7.79038 -0.241494 -1.17028 -20.3718 5.95489 -3.16596 11.7378 -0.0 -0.0 0.0 0.0 0.0 
871.966 741.968 -1642.03 -6.96776 41.4076 5.66934 3.01973 0.794365 0.570022 3.01959 0.756483 0.619415 3.02788 0.648991 0.731268 3.02793 0.756334 0.619597 -4.9423 -2.45752 -3.19233 -4.91519 -2.11276 -3.6768 -0.0 0.0 -0.0 6.98099 25.7173 12.192 -19.8416 -33.5198 31.3851 1.56806 -37.8364 0.537453 -15.202 -0.77628 1.77637 -4.21543 -26.9612 -41.4466 -0.0 0.0 -0.0 4.97909 5.39747 -9.39778 -32.8407 19.3999 -61.2045 0.773681 20.9697 -0.143184 11.5257 -0.261354 1.44663 0.232736 -8.04153 -4.85558 0.0 0.0 0.0 0.288816 25.7208 1.90821 -4.01511 0.144365 0.599159 32.8241 4.53397 -4.18342 16.2057 -0.0 -0.0 -0.0 0.0 -0.0 24.1527 22.7097 1.46834 -10.035 -0.28133 -1.5124 -20.0479 4.39684 -3.09449 14.9915 -0.0 -0.0 0.0 0.0 0.0 
